<svg width="25" height="25" viewBox="0 0 25 25" fill="none" xmlns="http://www.w3.org/2000/svg">
<path d="M11.0293 16.1766C10.6396 16.1751 10.2668 16.0192 9.99252 15.7427L7.78666 13.5369C7.21239 12.9626 7.21239 12.0302 7.78666 11.456C8.36093 10.8818 9.2933 10.8817 9.86752 11.456L11.1101 12.6986L15.2205 9.17657C15.8947 8.72364 16.8087 8.90376 17.2609 9.57803C17.6366 10.1383 17.5837 10.8817 17.1322 11.3824L11.9851 15.7942C11.7227 16.0325 11.3837 16.1685 11.0293 16.1766Z" fill="#FFD666"/>
<path d="M12.5 25C5.59634 25 0 19.4037 0 12.5C0 5.59634 5.59634 0 12.5 0C19.4037 0 25 5.59634 25 12.5C25 19.4037 19.4037 25 12.5 25ZM12.5 2.94116C7.22061 2.94116 2.94116 7.22061 2.94116 12.5C2.94116 17.7794 7.22061 22.0588 12.5 22.0588C17.7794 22.0588 22.0588 17.7794 22.0588 12.5C22.0588 7.22061 17.7794 2.94116 12.5 2.94116Z" fill="#FFD666"/>
</svg>
