<?xml version="1.0" encoding="utf-8"?>
<!-- Generator: Adobe Illustrator 22.1.0, SVG Export Plug-In . SVG Version: 6.00 Build 0)  -->
<svg version="1.1" id="Camada_1" xmlns="http://www.w3.org/2000/svg" xmlns:xlink="http://www.w3.org/1999/xlink" x="0px" y="0px"
	 viewBox="0 0 35 35" style="enable-background:new 0 0 35 35;" xml:space="preserve">
<style type="text/css">
	.st0{fill:#2E4A7D;}
</style>
<path class="st0" d="M17.5,0C7.8,0,0,7.8,0,17.5S7.8,35,17.5,35S35,27.2,35,17.5S27.2,0,17.5,0z M27.5,21.6c0,1.1-0.2,1.8-0.5,2.4
	c-0.5,1.3-1.6,2.4-2.9,2.9c-0.6,0.2-1.4,0.4-2.4,0.5c-1.1,0-1.4,0.1-4.1,0.1c-2.7,0-3.1,0-4.1-0.1c-1.1,0-1.8-0.2-2.4-0.5
	c-0.7-0.3-1.3-0.6-1.8-1.2c-0.5-0.5-0.9-1.1-1.2-1.8c-0.2-0.6-0.4-1.4-0.5-2.4c0-1.1-0.1-1.4-0.1-4.1c0-2.7,0-3.1,0.1-4.1
	c0-1.1,0.2-1.8,0.5-2.4c0.3-0.7,0.6-1.3,1.2-1.8c0.5-0.5,1.1-0.9,1.8-1.2c0.6-0.2,1.4-0.4,2.4-0.5c1.1,0,1.4-0.1,4.1-0.1
	c2.7,0,3.1,0,4.1,0.1c1.1,0,1.8,0.2,2.4,0.5c0.7,0.3,1.3,0.6,1.8,1.2c0.5,0.5,0.9,1.1,1.2,1.8c0.2,0.6,0.4,1.4,0.5,2.4
	c0,1.1,0.1,1.4,0.1,4.1C27.7,20.1,27.5,20.6,27.5,21.6z"/>
<path class="st0" d="M21.2,17.3c0,1.8-1.5,3.3-3.3,3.3s-3.3-1.5-3.3-3.3s1.5-3.3,3.3-3.3S21.2,15.5,21.2,17.3z"/>
<path class="st0" d="M25.9,13.4c0.1-1.1,0-1.7-0.2-2c-0.2-0.4-0.4-0.8-0.8-1.2c-0.3-0.3-0.7-0.6-1.2-0.8c-0.4-0.1-0.9-0.3-1.9-0.3
	c-1.1,0-1.4-0.1-4.1-0.1s-3,0-4.1,0.1c-1,0-1.5,0.2-1.9,0.3c-0.4,0.2-0.8,0.4-1.2,0.8c-0.3,0.3-0.6,0.7-0.8,1.2
	c-0.1,0.4-0.3,0.9-0.3,1.9c0,1.1-0.1,1.4-0.1,4.1c0,2.7,0,3,0.1,4.1c0,1,0.2,1.5,0.3,1.9c0.2,0.4,0.4,0.8,0.8,1.2
	c0.3,0.3,0.7,0.6,1.2,0.8c0.4,0.1,0.9,0.3,1.9,0.3c1.1,0,1.4,0.1,4.1,0.1s3,0,4.1-0.1c1,0,1.5-0.2,1.9-0.3c0.9-0.3,1.6-1,1.9-1.9
	c0.1-0.4,0.3-0.9,0.3-1.9c0-1.1,0.1-1.4,0.1-4.1S26,14.5,25.9,13.4z M17.9,22.5c-2.8,0-5.2-2.3-5.2-5.2c0-2.9,2.3-5.2,5.2-5.2
	c2.8,0,5.2,2.3,5.2,5.2C23.1,20.1,20.7,22.5,17.9,22.5z M23.3,13.1c-0.7,0-1.2-0.5-1.2-1.2c0-0.7,0.5-1.2,1.2-1.2s1.2,0.5,1.2,1.2
	C24.5,12.6,23.9,13.1,23.3,13.1z"/>
</svg>
