<svg width="30" height="30" viewBox="0 0 30 30" fill="none" xmlns="http://www.w3.org/2000/svg">
<path d="M16.2854 21.4453C16.9326 21.4453 17.4573 20.9206 17.4573 20.2734C17.4573 19.6262 16.9326 19.1016 16.2854 19.1016C15.6382 19.1016 15.1135 19.6262 15.1135 20.2734C15.1135 20.9206 15.6382 21.4453 16.2854 21.4453Z" fill="#FFD666"/>
<path d="M20.2112 27.6562H5.62134C4.32899 27.6562 3.27759 26.6048 3.27759 25.3124V15.7031C3.27759 14.4107 4.32899 13.3593 5.62134 13.3593H22.4963C22.7632 13.3593 22.9749 13.3829 23.1436 13.4312C23.7658 13.6095 24.4146 13.2496 24.5929 12.6274C24.7712 12.0053 24.4113 11.3564 23.7892 11.1781C23.4075 11.0688 22.9847 11.0156 22.4963 11.0156H21.0879V6.88277C21.0879 3.0876 17.9337 0 14.0567 0C10.1796 0 7.02542 3.0876 7.02542 6.88277V11.0156H5.62134C3.03665 11.0156 0.933838 13.1184 0.933838 15.7031V25.3125C0.933838 27.8972 3.03665 30 5.62134 30H20.2112C20.8584 30 21.3831 29.4754 21.3831 28.8281C21.3831 28.1809 20.8584 27.6562 20.2112 27.6562ZM9.36917 6.88277C9.36917 4.37994 11.472 2.34375 14.0567 2.34375C16.6414 2.34375 18.7442 4.37994 18.7442 6.88277V11.0156H9.36917V6.88277Z" fill="#FFD666"/>
<path d="M11.8909 21.4453C12.5381 21.4453 13.0627 20.9206 13.0627 20.2734C13.0627 19.6262 12.5381 19.1016 11.8909 19.1016C11.2437 19.1016 10.719 19.6262 10.719 20.2734C10.719 20.9206 11.2437 21.4453 11.8909 21.4453Z" fill="#FFD666"/>
<path d="M29.0652 19.4068C29.0395 17.134 27.1826 15.293 24.9038 15.293C22.6092 15.293 20.7422 17.1599 20.7422 19.4546C20.7422 20.1018 21.2668 20.6265 21.9141 20.6265C22.5613 20.6265 23.0859 20.1018 23.0859 19.4546C23.0859 18.4522 23.9014 17.6367 24.9039 17.6367C25.9063 17.6367 26.7217 18.4522 26.7217 19.4546C26.7217 19.4653 26.7219 19.4759 26.7221 19.4864C26.7101 20.204 26.279 20.8464 25.6168 21.1291C24.4719 21.618 23.732 22.7473 23.732 24.0061V25.0195C23.732 25.6668 24.2566 26.1914 24.9039 26.1914C25.5511 26.1914 26.0757 25.6668 26.0757 25.0195V24.0061C26.0757 23.6875 26.2569 23.4043 26.5372 23.2846C28.0739 22.6286 29.0666 21.1252 29.0662 19.4544C29.0662 19.4384 29.0658 19.4226 29.0652 19.4068Z" fill="#FFD666"/>
<path d="M24.8987 30C25.5459 30 26.0706 29.4753 26.0706 28.8281C26.0706 28.1809 25.5459 27.6562 24.8987 27.6562C24.2515 27.6562 23.7268 28.1809 23.7268 28.8281C23.7268 29.4753 24.2515 30 24.8987 30Z" fill="#FFD666"/>
<path d="M7.49634 21.4453C8.14355 21.4453 8.66821 20.9206 8.66821 20.2734C8.66821 19.6262 8.14355 19.1016 7.49634 19.1016C6.84913 19.1016 6.32446 19.6262 6.32446 20.2734C6.32446 20.9206 6.84913 21.4453 7.49634 21.4453Z" fill="#FFD666"/>
</svg>
