<svg width="35" height="28" viewBox="0 0 35 28" fill="none" xmlns="http://www.w3.org/2000/svg">
<path d="M35 10.7572V4.59756C35 2.37083 33.1882 0.559082 30.9616 0.559082H4.03848C1.81175 0.559082 0 2.37083 0 4.59756V10.7572C0 12.9839 1.81175 14.7957 4.03848 14.7957H30.9616C33.1884 14.7957 35 12.9841 35 10.7572ZM33.1361 10.7572C33.1361 11.9565 32.1611 12.9318 30.9615 12.9318H4.03848C2.83918 12.9318 1.86388 11.9565 1.86388 10.7572V4.59756C1.86388 3.39865 2.83918 2.42297 4.03848 2.42297H30.9616C32.1612 2.42297 33.1362 3.39865 33.1362 4.59756V10.7572H33.1361Z" fill="#2E4A7D"/>
<path d="M29.4431 6.78357H5.45388C4.0766 6.78357 2.95557 7.90447 2.95557 9.28188C2.95557 10.6592 4.0766 11.7802 5.45388 11.7802H29.4418C30.8192 11.7802 31.9404 10.6592 31.9404 9.28188C31.9404 7.90447 30.8204 6.78357 29.4431 6.78357ZM29.4431 9.91617H5.45388C5.10403 9.91617 4.81958 9.63159 4.81958 9.28188C4.81958 8.93217 5.10403 8.64745 5.45388 8.64745H29.4418C29.7919 8.64745 30.0765 8.93204 30.0765 9.28188C30.0765 9.63172 29.7925 9.91617 29.4431 9.91617Z" fill="#2E4A7D"/>
<path d="M20.3215 5.70928H22.8068C23.3219 5.70928 23.7387 5.29184 23.7387 4.77741C23.7387 4.26285 23.3219 3.8454 22.8068 3.8454H20.3215C19.8064 3.8454 19.3896 4.26285 19.3896 4.77741C19.3896 5.29184 19.8064 5.70928 20.3215 5.70928Z" fill="#2E4A7D"/>
<path d="M26.5349 5.70928H29.0202C29.5353 5.70928 29.9521 5.29184 29.9521 4.77741C29.9521 4.26285 29.5353 3.8454 29.0202 3.8454H26.5349C26.0198 3.8454 25.603 4.26285 25.603 4.77741C25.603 5.29184 26.0198 5.70928 26.5349 5.70928Z" fill="#2E4A7D"/>
<path d="M9.06499 18.0855C10.1344 17.5357 9.19123 15.9268 8.12453 16.4764C6.40769 17.36 5.67576 18.8077 6.31408 20.6691C6.94201 22.5039 9.02105 24.5195 6.64898 25.8737C5.60503 26.4696 6.54393 28.0799 7.58943 27.4828C9.31447 26.4987 10.0846 25.0109 9.45397 23.076C8.88818 21.3389 6.74089 19.2814 9.06499 18.0855Z" fill="#2E4A7D"/>
<path d="M19.0054 18.0855C20.0746 17.5357 19.1316 15.9268 18.0649 16.4764C16.3482 17.36 15.6162 18.8077 16.2545 20.6691C16.8824 22.5039 18.9619 24.5195 16.5894 25.8737C15.5454 26.4696 16.4843 28.0799 17.5298 27.4828C19.2549 26.4987 20.0248 25.0109 19.3944 23.076C18.8282 21.3389 16.6812 19.2814 19.0054 18.0855Z" fill="#2E4A7D"/>
<path d="M28.9464 18.0855C30.0155 17.5357 29.0726 15.9268 28.006 16.4764C26.2889 17.36 25.5571 18.8077 26.1954 20.6691C26.8234 22.5039 28.9027 24.5195 26.5303 25.8737C25.4868 26.4696 26.4253 28.0799 27.4707 27.4828C29.1958 26.4987 29.9656 25.0109 29.3353 23.076C28.7692 21.3389 26.6225 19.2814 28.9464 18.0855Z" fill="#2E4A7D"/>
</svg>
