<svg width="20" height="20" viewBox="0 0 20 20" fill="none" xmlns="http://www.w3.org/2000/svg">
<path d="M17.8516 20H2.14844C0.963789 20 0 19.0362 0 17.8516V7.69531C0 7.37172 0.262344 7.10938 0.585938 7.10938H19.4141C19.7377 7.10938 20 7.37172 20 7.69531V17.8516C20 19.0362 19.0362 20 17.8516 20Z" fill="#F5F5FF"/>
<path d="M19.4141 7.10938H10V20H17.8516C19.0362 20 20 19.0362 20 17.8516V7.69531C20 7.37172 19.7377 7.10938 19.4141 7.10938Z" fill="#E2E7FA"/>
<path d="M17.8516 2.34375H2.14844C0.963789 2.34375 0 3.30754 0 4.49219V7.69531H20V4.49219C20 3.30754 19.0362 2.34375 17.8516 2.34375Z" fill="#EF5CA2"/>
<path d="M17.8516 2.34375H10V7.69531H20V4.49219C20 3.30754 19.0362 2.34375 17.8516 2.34375Z" fill="#EA1C81"/>
<path d="M14.6875 0C14.0403 0 13.5156 0.524648 13.5156 1.17188V4.6875C13.5156 5.33473 14.0403 5.85938 14.6875 5.85938C15.3347 5.85938 15.8594 5.33473 15.8594 4.6875V1.17188C15.8594 0.524648 15.3347 0 14.6875 0Z" fill="#FFC178"/>
<path d="M5.3125 5.85938C4.66527 5.85938 4.14062 5.33473 4.14062 4.6875V1.17188C4.14062 0.524648 4.66527 0 5.3125 0C5.95973 0 6.48437 0.524648 6.48437 1.17188V4.6875C6.48437 5.33473 5.95973 5.85938 5.3125 5.85938Z" fill="#FFFA8C"/>
<path d="M12.7045 9.45312H11.2017C10.8781 9.45312 10.6157 9.71547 10.6157 10.0391C10.6157 10.3627 10.8781 10.625 11.2017 10.625H12.1186V17.0703C12.1186 17.3939 12.3809 17.6562 12.7045 17.6562C13.0281 17.6562 13.2904 17.3939 13.2904 17.0703V10.0391C13.2904 9.71547 13.0281 9.45312 12.7045 9.45312Z" fill="#453D81"/>
<path d="M9.83453 11.7969C9.83453 10.5045 8.78313 9.45312 7.49078 9.45312C6.37332 9.45312 5.40613 10.248 5.19102 11.3432C5.12863 11.6608 5.33551 11.9688 5.65305 12.0311C5.97024 12.0935 6.27852 11.8866 6.3409 11.5691C6.44836 11.0221 6.93196 10.625 7.49078 10.625C8.13696 10.625 8.66266 11.1507 8.66266 11.7969C8.66266 12.443 8.13696 12.9687 7.49078 12.9687C7.16719 12.9687 6.90485 13.2311 6.90485 13.5547C6.90485 13.8783 7.16719 14.1406 7.49078 14.1406C8.13696 14.1406 8.66266 14.6663 8.66266 15.3125C8.66266 15.9587 8.13696 16.4844 7.49078 16.4844C6.9093 16.4844 6.41039 16.0512 6.33024 15.4767C6.32274 15.4229 6.31891 15.3677 6.31891 15.3125C6.31891 14.9889 6.05656 14.7266 5.73297 14.7266C5.40938 14.7266 5.14703 14.9889 5.14703 15.3125C5.14703 15.4216 5.15461 15.5314 5.16957 15.6387C5.33008 16.7889 6.32797 17.6562 7.49078 17.6562C8.78313 17.6562 9.83453 16.6048 9.83453 15.3125C9.83453 14.613 9.5261 13.9845 9.03856 13.5547C9.5261 13.1249 9.83453 12.4964 9.83453 11.7969Z" fill="#6B61B1"/>
</svg>
