<svg width="15" height="20" viewBox="0 0 15 20" fill="none" xmlns="http://www.w3.org/2000/svg">
<path d="M14.1295 2.64241H11.0795V1.35242C11.0795 0.606687 10.5016 0 9.79114 0H5.20886C4.49843 0 3.92047 0.606687 3.92047 1.35242V2.64241H0.870534C0.390487 2.64241 0 3.0523 0 3.5562V5.23093C0 5.73484 0.390487 6.14473 0.870534 6.14473H1.37614V18.7207C1.37614 19.4261 1.92291 20 2.59489 20H12.405C13.077 20 13.6238 19.4261 13.6238 18.7207V6.1448H14.1295C14.6095 6.1448 15 5.73491 15 5.23101V3.5562C15 3.05237 14.6094 2.64241 14.1295 2.64241ZM4.96511 1.35242C4.96511 1.21374 5.07675 1.09656 5.20886 1.09656H9.79114C9.92325 1.09656 10.0349 1.21374 10.0349 1.35242V2.64241H4.96511V1.35242ZM12.5791 18.7208C12.5791 18.8198 12.4994 18.9035 12.405 18.9035H2.59489C2.50052 18.9035 2.42078 18.8198 2.42078 18.7208V6.1448H12.5791V18.7208ZM13.9554 5.04825H1.04464V3.73896H13.9554V5.04825Z" fill="white"/>
<path d="M4.44175 17.3532C4.73021 17.3532 4.96407 17.1077 4.96407 16.8049V8.44113C4.96407 8.13833 4.73021 7.89285 4.44175 7.89285C4.15322 7.89285 3.91943 8.13833 3.91943 8.44113V16.8049C3.91943 17.1077 4.15322 17.3532 4.44175 17.3532Z" fill="white"/>
<path d="M7.50035 17.3532C7.78888 17.3532 8.02267 17.1077 8.02267 16.8049V8.44113C8.02267 8.13833 7.78888 7.89285 7.50035 7.89285C7.21182 7.89285 6.97803 8.13833 6.97803 8.44113V16.8049C6.97803 17.1077 7.21189 17.3532 7.50035 17.3532Z" fill="white"/>
<path d="M10.5575 17.3532C10.846 17.3532 11.0798 17.1077 11.0798 16.8049V8.44113C11.0798 8.13833 10.846 7.89285 10.5575 7.89285C10.2689 7.89285 10.0352 8.13833 10.0352 8.44113V16.8049C10.0352 17.1077 10.2689 17.3532 10.5575 17.3532Z" fill="white"/>
</svg>
