<svg width="24" height="20" viewBox="0 0 24 20" fill="none" xmlns="http://www.w3.org/2000/svg">
<g clip-path="url(#clip0)">
<path d="M15.766 9.6275C15.5997 9.345 15.2611 9.16668 14.8903 9.16668H12.9334V0.83332C12.9334 0.37332 12.496 0 11.9549 0C11.4138 0 10.9765 0.37332 10.9765 0.83332V9.16664H9.01953C8.6487 9.16664 8.31012 9.34496 8.14382 9.62746C7.97943 9.90996 8.01466 10.2475 8.23679 10.5L11.1722 13.8333C11.1849 13.8475 11.2045 13.8525 11.2182 13.8658C11.2828 13.9308 11.3591 13.9808 11.4442 14.0266C11.4794 14.0449 11.5068 14.0691 11.545 14.0841C11.6702 14.1341 11.8072 14.1666 11.955 14.1666C12.1027 14.1666 12.2397 14.1341 12.3659 14.0841C12.4031 14.0691 12.4315 14.0449 12.4657 14.0266C12.5508 13.9808 12.6272 13.9308 12.6917 13.8658C12.7044 13.8525 12.725 13.8475 12.7377 13.8333L15.6731 10.5C15.8962 10.2475 15.9314 9.91 15.766 9.6275Z" fill="white"/>
<path d="M22.7181 12.5C22.177 12.5 21.7396 12.8733 21.7396 13.3333V15.8333C21.7396 17.2116 20.4226 18.3333 18.8042 18.3333H5.10572C3.48735 18.3333 2.17032 17.2116 2.17032 15.8333V13.3333C2.17032 12.8733 1.73295 12.5 1.19187 12.5C0.650752 12.5 0.213379 12.8733 0.213379 13.3333V15.8333C0.213379 18.1308 2.40809 20 5.10572 20H18.8042C21.5018 20 23.6965 18.1308 23.6965 15.8333V13.3333C23.6965 12.8733 23.2592 12.5 22.7181 12.5Z" fill="white"/>
</g>
<defs>
<clipPath id="clip0">
<rect width="23.4831" height="20" fill="white" transform="translate(0.213379)"/>
</clipPath>
</defs>
</svg>
