<svg width="20" height="20" viewBox="0 0 20 20" fill="none" xmlns="http://www.w3.org/2000/svg">
<path d="M13.2457 9.6275C13.1041 9.345 12.8157 9.16668 12.4999 9.16668H10.8332V0.83332C10.8332 0.37332 10.4607 0 9.99993 0C9.53911 0 9.16661 0.37332 9.16661 0.83332V9.16664H7.49993C7.18411 9.16664 6.89575 9.34496 6.75411 9.62746C6.61411 9.90996 6.64411 10.2475 6.83329 10.5L9.33329 13.8333C9.34411 13.8475 9.36079 13.8525 9.37247 13.8658C9.42747 13.9308 9.49247 13.9808 9.56497 14.0266C9.59497 14.0449 9.61829 14.0691 9.65079 14.0841C9.75747 14.1341 9.87411 14.1666 9.99997 14.1666C10.1258 14.1666 10.2425 14.1341 10.35 14.0841C10.3816 14.0691 10.4058 14.0449 10.435 14.0266C10.5075 13.9808 10.5725 13.9308 10.6275 13.8658C10.6383 13.8525 10.6558 13.8475 10.6666 13.8333L13.1666 10.5C13.3566 10.2475 13.3866 9.91 13.2457 9.6275Z" fill="white"/>
<path d="M19.1667 12.5C18.7059 12.5 18.3334 12.8733 18.3334 13.3333V15.8333C18.3334 17.2116 17.2117 18.3333 15.8334 18.3333H4.16668C2.78836 18.3333 1.66668 17.2116 1.66668 15.8333V13.3333C1.66668 12.8733 1.29418 12.5 0.833359 12.5C0.3725 12.5 0 12.8733 0 13.3333V15.8333C0 18.1308 1.86918 20 4.16668 20H15.8334C18.1308 20 20 18.1308 20 15.8333V13.3333C20 12.8733 19.6275 12.5 19.1667 12.5Z" fill="white"/>
</svg>
