<svg width="25" height="25" viewBox="0 0 25 25" fill="none" xmlns="http://www.w3.org/2000/svg">
<g clip-path="url(#clip0)">
<path d="M4.51436 21.0262H4.52666L12.7424 20.9852L11.5446 24.5785C11.5062 24.6936 11.536 24.8204 11.6219 24.9063C11.7076 24.9919 11.8346 25.022 11.9496 24.9836L15.7452 23.7184C15.7475 23.7176 15.7496 23.7165 15.7517 23.7157C15.7604 23.7126 15.769 23.7092 15.7773 23.7053C15.7809 23.7036 15.7844 23.7021 15.788 23.7003C15.7969 23.6959 15.8055 23.6909 15.8138 23.6857C15.8159 23.6844 15.8182 23.6832 15.8201 23.6819C15.8303 23.6752 15.8401 23.6679 15.8495 23.66C15.852 23.6579 15.8543 23.6556 15.8568 23.6534C15.8613 23.6494 15.8661 23.6454 15.8705 23.6411L22.9558 16.5556C23.0809 16.4305 23.0809 16.2279 22.9558 16.1028L20.4254 13.5724C20.3003 13.4473 20.0977 13.4473 19.9726 13.5724L18.0413 15.5035L18.0015 5.87133L18.0011 5.77961C18.0007 5.69455 17.9665 5.61304 17.906 5.55321L12.3912 0.102775C12.3386 0.051075 12.2698 0.0189707 12.1965 0.0120912L12.0818 0.00145929C12.0712 0.000416939 12.061 0.000416939 12.0497 0L4.42555 0.0366906C3.04903 0.0433616 1.93872 1.16451 1.94497 2.54083L2.0219 18.5456C2.03003 19.917 3.14305 21.0248 4.51436 21.0262ZM13.5665 20.8843L18.8072 15.6435L20.8848 17.7212L15.6441 22.9619L13.5665 20.8843ZM12.3547 24.1737L13.2534 21.4771L14.1523 22.3761L15.0512 23.2746L12.3547 24.1737ZM20.199 14.2518L22.2766 16.3294L21.3376 17.2684L19.26 15.1907L20.199 14.2518ZM16.9168 5.47628L14.352 5.48879C13.3291 5.49359 12.4958 4.66826 12.4908 3.6453L12.4785 1.08946L16.9168 5.47628ZM3.12157 1.22538C3.46659 0.875155 3.93731 0.677526 4.42868 0.676483L11.836 0.641252L11.8504 3.64842C11.8571 5.02036 12.9709 6.129 14.3426 6.12921H14.3549L17.3621 6.11482L17.4036 16.1418L13.2023 20.3431L4.52332 20.3862C3.50036 20.391 2.66711 19.5655 2.66232 18.5425L2.58539 2.5377C2.58164 2.04613 2.77489 1.57374 3.12157 1.22538Z" fill="white"/>
<path d="M10.7679 11.8219H9.68197C9.50497 11.8219 9.36176 11.9653 9.36176 12.1421C9.36176 12.3189 9.50497 12.4623 9.68197 12.4623H10.7679C10.9447 12.4623 11.0881 12.3189 11.0881 12.1421C11.0881 11.9653 10.9447 11.8219 10.7679 11.8219Z" fill="white"/>
<path d="M5.49538 9.7465H14.5115C14.6883 9.7465 14.8317 9.60328 14.8317 9.42629C14.8317 9.24951 14.6883 9.10608 14.5115 9.10608H5.49538C5.3186 9.10608 5.17517 9.24951 5.17517 9.42629C5.17517 9.60328 5.3186 9.7465 5.49538 9.7465Z" fill="white"/>
<path d="M5.49538 12.4623H8.30575C8.48254 12.4623 8.62596 12.3189 8.62596 12.1421C8.62596 11.9653 8.48254 11.8219 8.30575 11.8219H5.49538C5.3186 11.8219 5.17517 11.9653 5.17517 12.1421C5.17517 12.3189 5.3186 12.4623 5.49538 12.4623Z" fill="white"/>
</g>
<defs>
<clipPath id="clip0">
<rect width="25" height="25" fill="white"/>
</clipPath>
</defs>
</svg>
