<svg width="20" height="25" viewBox="0 0 20 25" fill="none" xmlns="http://www.w3.org/2000/svg">
<path d="M18.8393 3.30301H14.7727V1.69052C14.7727 0.758359 14.0021 0 13.0549 0H6.94515C5.99791 0 5.22729 0.758359 5.22729 1.69052V3.30301H1.16071C0.520649 3.30301 0 3.81537 0 4.44525V6.53867C0 7.16855 0.520649 7.68091 1.16071 7.68091H1.83485V23.4009C1.83485 24.2827 2.56387 25 3.45985 25H16.5401C17.436 25 18.1651 24.2827 18.1651 23.4009V7.681H18.8393C19.4794 7.681 20 7.16864 20 6.53876V4.44525C20 3.81546 19.4793 3.30301 18.8393 3.30301ZM6.62015 1.69052C6.62015 1.51718 6.769 1.37069 6.94515 1.37069H13.0549C13.231 1.37069 13.3799 1.51718 13.3799 1.69052V3.30301H6.62015V1.69052ZM16.7722 23.4009C16.7722 23.5248 16.6659 23.6294 16.5401 23.6294H3.45985C3.33403 23.6294 3.22771 23.5248 3.22771 23.4009V7.681H16.7722V23.4009ZM18.6071 6.31031H1.39285V4.6737H18.6071V6.31031Z" fill="white"/>
<path d="M5.92348 21.6918C6.30809 21.6918 6.61991 21.3849 6.61991 21.0064V10.5517C6.61991 10.1732 6.30809 9.86633 5.92348 9.86633C5.53877 9.86633 5.22705 10.1732 5.22705 10.5517V21.0064C5.22705 21.3849 5.53877 21.6918 5.92348 21.6918Z" fill="white"/>
<path d="M9.99989 21.6918C10.3846 21.6918 10.6963 21.3849 10.6963 21.0064V10.5517C10.6963 10.1732 10.3846 9.86633 9.99989 9.86633C9.61519 9.86633 9.30347 10.1732 9.30347 10.5517V21.0064C9.30347 21.3849 9.61528 21.6918 9.99989 21.6918Z" fill="white"/>
<path d="M14.0761 21.6918C14.4608 21.6918 14.7725 21.3849 14.7725 21.0064V10.5517C14.7725 10.1732 14.4608 9.86633 14.0761 9.86633C13.6914 9.86633 13.3796 10.1732 13.3796 10.5517V21.0064C13.3796 21.3849 13.6914 21.6918 14.0761 21.6918Z" fill="white"/>
</svg>
