<svg width="75" height="75" viewBox="0 0 75 75" fill="none" xmlns="http://www.w3.org/2000/svg">
<circle cx="37.5" cy="37.5" r="36.25" fill="#2E4A7D" stroke="white" stroke-width="2.5"/>
<path d="M43.8725 36.6998C43.495 36.6998 43.1891 36.4295 43.1891 36.0962V24.3456C43.1891 23.569 42.4738 22.9372 41.5946 22.9372H38.6788C38.3013 22.9372 37.9955 22.6669 37.9955 22.3336C37.9955 22.0002 38.3014 21.73 38.6788 21.73H41.5946C43.2275 21.73 44.5559 22.9034 44.5559 24.3457V36.0963C44.5559 36.4295 44.2499 36.6998 43.8725 36.6998Z" fill="#FCF1F2"/>
<path d="M36.426 20.0014C37.0903 19.9737 37.6566 20.3653 37.8148 20.9022C37.867 21.0793 38.0401 21.2072 38.2471 21.2072H39.1343C39.6375 21.2072 40.0455 21.5676 40.0455 22.0121V22.8169C40.0455 23.2614 39.6376 23.6218 39.1343 23.6218H38.2471C38.0401 23.6218 37.8669 23.7498 37.8148 23.9268C37.6566 24.4638 37.0903 24.8553 36.426 24.8277C35.6909 24.7971 35.1253 24.2377 35.1253 23.5877V21.2413C35.1254 20.5912 35.6909 20.0319 36.426 20.0014Z" fill="#736572"/>
<path d="M21.3668 36.6999C20.9893 36.6999 20.6835 36.4296 20.6835 36.0963V24.3457C20.6835 22.9034 22.0119 21.73 23.6448 21.73H25.6493C26.0268 21.73 26.3327 22.0002 26.3327 22.3336C26.3327 22.6669 26.0267 22.9372 25.6493 22.9372H23.6448C22.7655 22.9372 22.0502 23.569 22.0502 24.3456V36.0962C22.0502 36.4296 21.7443 36.6999 21.3668 36.6999Z" fill="#FCF1F2"/>
<path d="M28.8132 20.0014C28.1489 19.9737 27.5826 20.3653 27.4244 20.9022C27.3722 21.0793 27.1991 21.2072 26.992 21.2072H26.1048C25.6016 21.2072 25.1936 21.5676 25.1936 22.0121V22.8169C25.1936 23.2614 25.6015 23.6218 26.1048 23.6218H26.992C27.1991 23.6218 27.3722 23.7498 27.4244 23.9268C27.5826 24.4638 28.1489 24.8553 28.8132 24.8277C29.5483 24.7971 30.1139 24.2377 30.1139 23.5877V21.2413C30.1139 20.5912 29.5484 20.0319 28.8132 20.0014Z" fill="#736572"/>
<path d="M57.2665 36.8206L55.8997 53.2399C55.8997 55.2401 53.7147 56.2959 53.7147 56.2959C53.7147 56.2959 52.2269 56.7077 51.7993 56.5741C50.2069 56.0769 49.0661 54.7354 49.0661 53.1586V50.1525C49.0661 49.2388 48.1774 48.5049 47.1235 48.5898C46.2027 48.664 44.3998 49.3859 44.3998 50.2027L44.4277 53.8813C44.4277 57.4427 39.9426 59.6515 38.4767 59.836C38.1011 59.824 37.3034 59.9009 36.9941 59.8836C33.6746 59.3104 31.2074 56.6831 31.2074 53.6034V48.2492H33.9409V53.6818C33.9409 55.9061 36.058 57.7019 38.6059 57.5793C40.9601 57.466 42.7791 55.7013 42.7791 53.6187V50.1807C42.7791 47.9105 44.9402 46.0777 47.5405 46.2029C49.9432 46.3186 51.7996 48.1196 51.7996 50.2451V53.1587C51.7996 53.8254 52.4115 54.3659 53.1664 54.3659C53.9212 54.3659 54.5331 53.8255 54.5331 53.1587V36.8206H57.2665Z" fill="#CBB0F2"/>
<path d="M47.2747 48.5833C47.2246 48.5833 47.1745 48.5857 47.1235 48.5897C46.2023 48.6637 45.5126 49.3719 45.5126 50.1889V53.6819C45.5126 57.2432 42.1596 60.1262 38.0949 59.9958C37.7213 59.9837 37.3559 59.9458 37.0006 59.8847C36.9988 59.8839 36.996 59.883 36.9943 59.883C40.2744 59.3204 42.7601 56.7715 42.7783 53.7164C42.7792 53.7052 42.7792 53.6931 42.7792 53.6818V51.1377C42.7792 49.6053 44.0376 48.5897 45.4444 48.5897L47.2747 48.5833Z" fill="#B696EF"/>
<path d="M57.2665 36.8206V53.1587C57.2665 55.1587 55.4305 56.7804 53.1663 56.7804C52.687 56.7804 52.2269 56.708 51.7995 56.5735C53.3713 56.0834 54.5029 54.7707 54.5312 53.2206C54.5321 53.2004 54.533 53.1796 54.533 53.1587V36.8206H57.2665Z" fill="#B696EF"/>
<path d="M42.5058 39.5569C42.5058 41.1127 41.078 42.3738 39.3167 42.3738H25.9226C24.1614 42.3738 22.7336 41.1127 22.7336 39.5569V35.7743C22.7336 35.552 22.5296 35.3718 22.278 35.3718H20.4556C20.204 35.3718 20 35.552 20 35.7743V39.9594C20 42.6263 22.4477 44.7884 25.467 44.7884H28.9295C29.4326 44.7884 29.8406 45.1487 29.8406 45.5932V47.6053C29.8406 48.0497 30.2486 48.4101 30.7518 48.4101H31.9363C32.4395 48.4101 32.8475 48.0498 32.8475 47.6053V45.5932C32.8475 45.1488 33.2554 44.7884 33.7587 44.7884H38.3145C41.3338 44.7884 43.7815 42.6263 43.7815 39.9594L42.5058 39.5569Z" fill="#736572"/>
<path d="M36.2187 44.7886C35.7157 44.7886 35.3075 45.1491 35.3075 45.5934V47.6055C35.3075 48.0498 34.8994 48.4103 34.3964 48.4103H31.6629C32.1659 48.4103 32.5741 48.0498 32.5741 47.6055V45.5934C32.5741 45.1491 32.9823 44.7886 33.4853 44.7886H36.2187Z" fill="#615260"/>
<path d="M45.2392 35.7743V39.9594C45.2392 42.6266 42.7919 44.7884 39.7722 44.7884H37.0388C40.0584 44.7884 42.5058 42.6266 42.5058 39.9594V35.7743C42.5058 35.5521 42.7099 35.3718 42.9614 35.3718H44.7837C45.0351 35.3718 45.2392 35.5521 45.2392 35.7743Z" fill="#615260"/>
<path d="M54.5328 37.5801C52.9404 37.0829 51.7996 35.7414 51.7996 34.1646C51.7996 32.5878 52.9404 31.2463 54.5328 30.749C54.9604 30.6155 58.7916 32.1643 58.7916 34.1646C58.7916 36.1648 54.9604 37.7137 54.5328 37.5801Z" fill="#BCF1F8"/>
<path d="M60 34.1647C60 35.1643 59.5408 36.0706 58.799 36.7257C58.0573 37.3808 57.0313 37.7865 55.8997 37.7865C55.4204 37.7865 54.9603 37.714 54.533 37.5796C55.1161 37.3985 55.6382 37.1031 56.0656 36.7257C56.8073 36.0705 57.2665 35.1643 57.2665 34.1647C57.2665 33.1651 56.8073 32.2588 56.0656 31.6038C55.6382 31.2263 55.1161 30.9309 54.533 30.7498C54.9602 30.6155 55.4204 30.543 55.8997 30.543C57.0314 30.543 58.0573 30.9486 58.799 31.6038C59.5408 32.2588 60 33.1651 60 34.1647Z" fill="#8EF0F0"/>
<path d="M55.8999 35.3718C55.145 35.3718 54.5331 34.8314 54.5331 34.1645C54.5331 33.4978 55.145 32.9573 55.8999 32.9573C56.6547 32.9573 57.2666 33.4977 57.2666 34.1645C57.2665 34.8314 56.6547 35.3718 55.8999 35.3718Z" fill="#00DDF9"/>
<path d="M35.973 32.6706C35.973 35.7113 31.8775 36.9959 31.2517 36.6624C29.5924 35.7777 27.1458 33.8599 27.1458 31.6518C27.1458 30.1726 28.5033 28.9734 30.1781 28.9734C31.0452 28.9734 31.8271 29.295 32.3796 29.8105C32.5095 29.9318 32.7297 29.9318 32.8597 29.8105C33.099 29.5874 33.3812 29.4005 33.6946 29.2604C33.6946 29.2604 35.0397 29.2149 36.0287 31.2557L35.973 32.6706Z" fill="#FF8D95"/>
<path d="M38.0939 31.652C38.0939 34.6927 33.4515 37.1828 32.6197 37.1828C32.3909 37.1828 31.878 36.9961 31.252 36.6621C32.9112 35.7785 35.3605 33.8605 35.3605 31.6521C35.3605 30.9125 35.0215 30.2429 34.4721 29.7583C34.2461 29.5579 33.9837 29.3897 33.6949 29.261C34.105 29.0775 34.5697 28.9736 35.0617 28.9736C35.899 28.9736 36.6571 29.273 37.2057 29.7583C37.7549 30.2427 38.0939 30.9123 38.0939 31.652Z" fill="#FF738A"/>
<circle cx="37.5" cy="37.5" r="36.25" fill="#2E4A7D" stroke="white" stroke-width="2.5"/>
<path d="M43.8725 36.6998C43.495 36.6998 43.1891 36.4295 43.1891 36.0962V24.3456C43.1891 23.569 42.4738 22.9372 41.5946 22.9372H38.6788C38.3013 22.9372 37.9955 22.6669 37.9955 22.3336C37.9955 22.0002 38.3014 21.73 38.6788 21.73H41.5946C43.2275 21.73 44.5559 22.9034 44.5559 24.3457V36.0963C44.5559 36.4295 44.2499 36.6998 43.8725 36.6998Z" fill="#FCF1F2"/>
<path d="M36.426 20.0014C37.0903 19.9737 37.6566 20.3653 37.8148 20.9022C37.867 21.0793 38.0401 21.2072 38.2471 21.2072H39.1343C39.6375 21.2072 40.0455 21.5676 40.0455 22.0121V22.8169C40.0455 23.2614 39.6376 23.6218 39.1343 23.6218H38.2471C38.0401 23.6218 37.8669 23.7498 37.8148 23.9268C37.6566 24.4638 37.0903 24.8553 36.426 24.8277C35.6909 24.7971 35.1253 24.2377 35.1253 23.5877V21.2413C35.1254 20.5912 35.6909 20.0319 36.426 20.0014Z" fill="#736572"/>
<path d="M21.3668 36.6999C20.9893 36.6999 20.6835 36.4296 20.6835 36.0963V24.3457C20.6835 22.9034 22.0119 21.73 23.6448 21.73H25.6493C26.0268 21.73 26.3327 22.0002 26.3327 22.3336C26.3327 22.6669 26.0267 22.9372 25.6493 22.9372H23.6448C22.7655 22.9372 22.0502 23.569 22.0502 24.3456V36.0962C22.0502 36.4296 21.7443 36.6999 21.3668 36.6999Z" fill="#FCF1F2"/>
<path d="M28.8132 20.0014C28.1489 19.9737 27.5826 20.3653 27.4244 20.9022C27.3722 21.0793 27.1991 21.2072 26.992 21.2072H26.1048C25.6016 21.2072 25.1936 21.5676 25.1936 22.0121V22.8169C25.1936 23.2614 25.6015 23.6218 26.1048 23.6218H26.992C27.1991 23.6218 27.3722 23.7498 27.4244 23.9268C27.5826 24.4638 28.1489 24.8553 28.8132 24.8277C29.5483 24.7971 30.1139 24.2377 30.1139 23.5877V21.2413C30.1139 20.5912 29.5484 20.0319 28.8132 20.0014Z" fill="#736572"/>
<path d="M57.2665 36.8206L55.8997 53.2399C55.8997 55.2401 53.7147 56.2959 53.7147 56.2959C53.7147 56.2959 52.2269 56.7077 51.7993 56.5741C50.2069 56.0769 49.0661 54.7354 49.0661 53.1586V50.1525C49.0661 49.2388 48.1774 48.5049 47.1235 48.5898C46.2027 48.664 44.3998 49.3859 44.3998 50.2027L44.4277 53.8813C44.4277 57.4427 39.9426 59.6515 38.4767 59.836C38.1011 59.824 37.3034 59.9009 36.9941 59.8836C33.6746 59.3104 31.2074 56.6831 31.2074 53.6034V48.2492H33.9409V53.6818C33.9409 55.9061 36.058 57.7019 38.6059 57.5793C40.9601 57.466 42.7791 55.7013 42.7791 53.6187V50.1807C42.7791 47.9105 44.9402 46.0777 47.5405 46.2029C49.9432 46.3186 51.7996 48.1196 51.7996 50.2451V53.1587C51.7996 53.8254 52.4115 54.3659 53.1664 54.3659C53.9212 54.3659 54.5331 53.8255 54.5331 53.1587V36.8206H57.2665Z" fill="#CBB0F2"/>
<path d="M47.2747 48.5833C47.2246 48.5833 47.1745 48.5857 47.1235 48.5897C46.2023 48.6637 45.5126 49.3719 45.5126 50.1889V53.6819C45.5126 57.2432 42.1596 60.1262 38.0949 59.9958C37.7213 59.9837 37.3559 59.9458 37.0006 59.8847C36.9988 59.8839 36.996 59.883 36.9943 59.883C40.2744 59.3204 42.7601 56.7715 42.7783 53.7164C42.7792 53.7052 42.7792 53.6931 42.7792 53.6818V51.1377C42.7792 49.6053 44.0376 48.5897 45.4444 48.5897L47.2747 48.5833Z" fill="#B696EF"/>
<path d="M57.2665 36.8206V53.1587C57.2665 55.1587 55.4305 56.7804 53.1663 56.7804C52.687 56.7804 52.2269 56.708 51.7995 56.5735C53.3713 56.0834 54.5029 54.7707 54.5312 53.2206C54.5321 53.2004 54.533 53.1796 54.533 53.1587V36.8206H57.2665Z" fill="#B696EF"/>
<path d="M42.5058 39.5569C42.5058 41.1127 41.078 42.3738 39.3167 42.3738H25.9226C24.1614 42.3738 22.7336 41.1127 22.7336 39.5569V35.7743C22.7336 35.552 22.5296 35.3718 22.278 35.3718H20.4556C20.204 35.3718 20 35.552 20 35.7743V39.9594C20 42.6263 22.4477 44.7884 25.467 44.7884H28.9295C29.4326 44.7884 29.8406 45.1487 29.8406 45.5932V47.6053C29.8406 48.0497 30.2486 48.4101 30.7518 48.4101H31.9363C32.4395 48.4101 32.8475 48.0498 32.8475 47.6053V45.5932C32.8475 45.1488 33.2554 44.7884 33.7587 44.7884H38.3145C41.3338 44.7884 43.7815 42.6263 43.7815 39.9594L42.5058 39.5569Z" fill="#736572"/>
<path d="M36.2187 44.7886C35.7157 44.7886 35.3075 45.1491 35.3075 45.5934V47.6055C35.3075 48.0498 34.8994 48.4103 34.3964 48.4103H31.6629C32.1659 48.4103 32.5741 48.0498 32.5741 47.6055V45.5934C32.5741 45.1491 32.9823 44.7886 33.4853 44.7886H36.2187Z" fill="#615260"/>
<path d="M45.2392 35.7743V39.9594C45.2392 42.6266 42.7919 44.7884 39.7722 44.7884H37.0388C40.0584 44.7884 42.5058 42.6266 42.5058 39.9594V35.7743C42.5058 35.5521 42.7099 35.3718 42.9614 35.3718H44.7837C45.0351 35.3718 45.2392 35.5521 45.2392 35.7743Z" fill="#615260"/>
<path d="M54.5328 37.5801C52.9404 37.0829 51.7996 35.7414 51.7996 34.1646C51.7996 32.5878 52.9404 31.2463 54.5328 30.749C54.9604 30.6155 58.7916 32.1643 58.7916 34.1646C58.7916 36.1648 54.9604 37.7137 54.5328 37.5801Z" fill="#BCF1F8"/>
<path d="M60 34.1647C60 35.1643 59.5408 36.0706 58.799 36.7257C58.0573 37.3808 57.0313 37.7865 55.8997 37.7865C55.4204 37.7865 54.9603 37.714 54.533 37.5796C55.1161 37.3985 55.6382 37.1031 56.0656 36.7257C56.8073 36.0705 57.2665 35.1643 57.2665 34.1647C57.2665 33.1651 56.8073 32.2588 56.0656 31.6038C55.6382 31.2263 55.1161 30.9309 54.533 30.7498C54.9602 30.6155 55.4204 30.543 55.8997 30.543C57.0314 30.543 58.0573 30.9486 58.799 31.6038C59.5408 32.2588 60 33.1651 60 34.1647Z" fill="#8EF0F0"/>
<path d="M55.8999 35.3718C55.145 35.3718 54.5331 34.8314 54.5331 34.1645C54.5331 33.4978 55.145 32.9573 55.8999 32.9573C56.6547 32.9573 57.2666 33.4977 57.2666 34.1645C57.2665 34.8314 56.6547 35.3718 55.8999 35.3718Z" fill="#00DDF9"/>
<path d="M35.973 32.6706C35.973 35.7113 31.8775 36.9959 31.2517 36.6624C29.5924 35.7777 27.1458 33.8599 27.1458 31.6518C27.1458 30.1726 28.5033 28.9734 30.1781 28.9734C31.0452 28.9734 31.8271 29.295 32.3796 29.8105C32.5095 29.9318 32.7297 29.9318 32.8597 29.8105C33.099 29.5874 33.3812 29.4005 33.6946 29.2604C33.6946 29.2604 35.0397 29.2149 36.0287 31.2557L35.973 32.6706Z" fill="#FF8D95"/>
<path d="M38.0939 31.652C38.0939 34.6927 33.4515 37.1828 32.6197 37.1828C32.3909 37.1828 31.878 36.9961 31.252 36.6621C32.9112 35.7785 35.3605 33.8605 35.3605 31.6521C35.3605 30.9125 35.0215 30.2429 34.4721 29.7583C34.2461 29.5579 33.9837 29.3897 33.6949 29.261C34.105 29.0775 34.5697 28.9736 35.0617 28.9736C35.899 28.9736 36.6571 29.273 37.2057 29.7583C37.7549 30.2427 38.0939 30.9123 38.0939 31.652Z" fill="#FF738A"/>
</svg>
