<svg width="25" height="25" viewBox="0 0 25 25" fill="none" xmlns="http://www.w3.org/2000/svg">
<path d="M24.2708 12.5C24.2708 13.8021 23.2595 14.8438 21.9954 14.8438H14.4108V22.6562C14.4108 23.9583 13.3995 25 12.1355 25C10.8714 25 9.86007 23.9583 9.86007 22.6562V14.8438H2.27539C1.0113 14.8438 0 13.8021 0 12.5C0 11.1979 1.0113 10.1562 2.27539 10.1562H9.85998V2.34376C9.85998 1.04169 10.8713 0 12.1354 0C13.3994 0 14.4107 1.04169 14.4107 2.34376V10.1562H21.9953C23.2595 10.1562 24.2708 11.1978 24.2708 12.5Z" fill="white"/>
</svg>
