<svg width="20" height="20" viewBox="0 0 20 20" fill="none" xmlns="http://www.w3.org/2000/svg">
<path d="M19.7106 6.48196C19.296 5.4197 18.5358 3.88701 17.2684 2.61764C16.0054 1.35264 14.4985 0.609521 13.4566 0.208819C12.3129 -0.231062 11.0132 0.0462022 10.1457 0.915144L7.09695 3.96865C6.19322 4.87376 5.93275 6.26649 6.44876 7.43426C6.60877 7.79645 6.78279 8.1507 6.96873 8.49297L0.277446 15.2263C0.131839 15.3728 0.0500488 15.5715 0.0500488 15.7788V19.2163C0.0500488 19.6477 0.397627 19.9975 0.826413 19.9975H4.24241C4.6712 19.9975 5.01878 19.6477 5.01878 19.2163V17.81L6.41623 17.81C6.84502 17.81 7.1926 17.4602 7.1926 17.0287V15.6225H8.59005C9.01884 15.6225 9.36642 15.2727 9.36642 14.8413C9.36642 14.4098 9.01884 14.06 8.59005 14.06H6.41623C5.98745 14.06 5.63987 14.4098 5.63987 14.8413V16.2475L4.24241 16.2475C3.81363 16.2475 3.46605 16.5973 3.46605 17.0288V18.435H1.60278V16.1024L8.48738 9.17449C8.74032 8.91996 8.78771 8.52453 8.6022 8.2168C8.33315 7.77055 8.086 7.29368 7.86764 6.79942C7.61148 6.2197 7.74199 5.52716 8.1924 5.07603L11.2411 2.02256C11.6763 1.58667 12.3284 1.44764 12.9024 1.66834C13.8038 2.01506 15.103 2.65326 16.1731 3.72506C17.2497 4.80333 17.9051 6.13001 18.2654 7.05305C18.4902 7.62914 18.3536 8.28363 17.9174 8.72051L14.8319 11.8109C14.3825 12.2608 13.7119 12.3924 13.1232 12.146C12.6377 11.9428 12.1675 11.7014 11.7258 11.4286C11.3604 11.2029 10.8823 11.318 10.658 11.6858C10.4337 12.0535 10.5481 12.5346 10.9136 12.7603C11.4241 13.0756 11.9669 13.3543 12.5269 13.5887C13.697 14.0785 15.0317 13.8153 15.9272 12.9183L19.0127 9.828C19.8879 8.95148 20.1618 7.63809 19.7106 6.48196Z" fill="#2E4A7D"/>
</svg>
