<svg width="30" height="30" viewBox="0 0 30 30" fill="none" xmlns="http://www.w3.org/2000/svg">
<g clip-path="url(#clip0)">
<path d="M18.7498 16.2503C18.0586 16.2503 17.4999 16.8103 17.4999 17.5002V22.5003C17.4999 23.189 16.9398 23.7502 16.2498 23.7502H12.4998V5.00036C12.4998 3.93287 11.8198 2.97913 10.7974 2.62414L10.4273 2.50031H16.2498C16.9398 2.50031 17.4999 3.06152 17.4999 3.75045V7.50042C17.4999 8.19026 18.0586 8.75033 18.7498 8.75033C19.441 8.75033 19.9997 8.19026 19.9997 7.50042V3.75045C19.9997 1.68298 18.3172 0.000488281 16.2498 0.000488281H2.81247C2.76486 0.000488281 2.72504 0.0217741 2.6788 0.0279538C2.61861 0.0229185 2.56116 0.000488281 2.50005 0.000488281C1.12128 0.000488281 0 1.12154 0 2.50031V25.0001C0 26.0676 0.680001 27.0213 1.70241 27.3763L9.22499 29.8839C9.47996 29.9627 9.73356 30.0002 9.99997 30.0002C11.3787 30.0002 12.4998 28.8789 12.4998 27.5001V26.2502H16.2498C18.3172 26.2502 19.9997 24.5677 19.9997 22.5003V17.5002C19.9997 16.8103 19.441 16.2503 18.7498 16.2503Z" fill="#2E4A7D"/>
<path d="M29.6335 11.6165L24.6334 6.61659C24.2761 6.25908 23.7385 6.1515 23.2711 6.34513C22.8049 6.539 22.4998 6.99515 22.4998 7.50029V11.2503H17.4999C16.8099 11.2503 16.2498 11.8101 16.2498 12.5002C16.2498 13.1902 16.8099 13.7501 17.4999 13.7501H22.4998V17.5C22.4998 18.0052 22.8049 18.4613 23.2711 18.6552C23.7385 18.8488 24.2761 18.7412 24.6334 18.384L29.6335 13.3839C30.1222 12.8952 30.1222 12.1051 29.6335 11.6165Z" fill="#2E4A7D"/>
</g>
<defs>
<clipPath id="clip0">
<rect width="30" height="30" fill="white"/>
</clipPath>
</defs>
</svg>
