<svg width="20" height="20" viewBox="0 0 20 20" fill="none" xmlns="http://www.w3.org/2000/svg">
<path d="M18.3437 20.0001H16.3298C16.3298 16.5813 13.4801 13.8008 9.97498 13.8008C6.46982 13.8008 3.62118 16.5823 3.62118 20.0001H1.6073C1.6073 15.4626 5.36218 11.7743 9.97598 11.7743C14.5888 11.7743 18.3437 15.4626 18.3437 20.0001Z" fill="#2E4A7D"/>
<path d="M9.97604 11.1156C6.93206 11.1156 4.45398 8.62093 4.45398 5.55781C4.45297 2.49367 6.93105 0 9.97604 0C13.022 0 15.5001 2.49265 15.5001 5.55781C15.5001 8.62296 13.022 11.1156 9.97604 11.1156ZM9.97604 2.02655C8.0407 2.02655 6.46685 3.61029 6.46685 5.55781C6.46685 7.50532 8.0407 9.08907 9.97604 9.08907C11.9124 9.08907 13.4862 7.50532 13.4862 5.55781C13.4862 3.61029 11.9104 2.02655 9.97604 2.02655Z" fill="#2E4A7D"/>
</svg>
