<svg width="25" height="20" viewBox="0 0 25 20" fill="none" xmlns="http://www.w3.org/2000/svg">
<path d="M24.48 14.9924L15.6526 1.6226C14.9853 0.606714 13.8067 0 12.4999 0C11.1932 0 10.0146 0.606714 9.34723 1.6226L0.520614 14.9924C-0.161027 16.0297 -0.173917 17.2754 0.485507 18.3243C1.14644 19.3739 2.33717 20 3.67252 20H21.3273C22.6627 20 23.8535 19.3739 24.5143 18.3243C25.1738 17.2755 25.161 16.0297 24.48 14.9924ZM12.5 4.0876C13.3099 4.0876 13.9664 4.68125 13.9664 5.41362V10.7178C13.9664 11.4501 13.3099 12.0438 12.5 12.0438C11.6901 12.0438 11.0336 11.45 11.0336 10.7178V5.41362C11.0335 4.68125 11.6901 4.0876 12.5 4.0876ZM12.5 17.3479C11.287 17.3479 10.3003 16.4557 10.3003 15.3588C10.3003 14.262 11.287 13.3698 12.5 13.3698C13.7129 13.3698 14.6996 14.262 14.6996 15.3588C14.6996 16.4557 13.7129 17.3479 12.5 17.3479Z" fill="#FF2C2C"/>
</svg>
